PathFileType	4	(X/Y/Z)	D:\TRACE\v60_Jaco2_6-2-23\JustBodyDRS_Motion3_7-platform.trc
DataRate	CameraRate	NumFrames	NumMarkers	Units	OrigDataRate	OrigDataStartFrame	OrigNumFrames
100.00	100.00	      72	5	mm	100.00	6126	      7000
Frame#	Time	Left_Front			Right_Front			Left_Aft			Right_Aft			Post			
		X1	Y1	Z1	X2	Y2	Z2	X3	Y3	Z3	X4	Y4	Z4	X5	Y5	Z5	

6126	61.250	-780.94806	38.84771	-643.75427	789.58813	36.52998	-620.61334	-712.21832	-9.17886	489.74493	702.69513	-14.63291	595.24377	13.72184	1348.40320	-900.60602	
6127	61.260	-780.99628	38.79138	-643.78094	789.51624	36.47285	-620.63293	-711.63922	-9.42861	489.92856	702.49506	-14.53889	595.18335	13.59003	1348.35034	-900.42999	
6128	61.270	-780.85443	38.76151	-643.64014	789.56073	36.42164	-620.68378	-712.10779	-8.70242	489.52719	702.50507	-14.56534	595.16156	13.70713	1348.31189	-900.34790	
6129	61.280	-780.90759	38.66848	-643.66223	789.48962	36.35401	-620.75592	-712.41003	-8.52250	489.43118	702.43494	-14.48827	595.19080	13.72876	1348.18933	-900.17401	
6130	61.290	-780.97131	38.62146	-643.86707	789.45782	36.26883	-620.78345	-712.26935	-8.62171	489.43643	702.45734	-14.47670	595.13330	13.74225	1347.90173	-900.07288	
6131	61.300	-781.07458	38.55683	-643.90521	789.37494	36.19469	-620.75507	-712.55054	-8.44606	489.39041	702.39697	-14.42566	595.14923	13.73862	1347.80212	-900.15485	
6132	61.310	-781.14038	38.44495	-643.97101	789.33960	36.14451	-620.79547	-712.57996	-8.40790	489.38846	702.37347	-14.37246	595.13879	13.74917	1347.68457	-900.31293	
6133	61.320	-781.19720	38.28050	-643.79388	789.30286	36.14434	-620.79828	-712.63617	-8.30713	489.35593	702.23035	-14.33169	595.10620	13.61664	1347.62622	-900.77002	
6134	61.330	-781.23572	38.24588	-643.87115	789.33557	36.07910	-620.82703	-712.61414	-8.25058	489.29617	702.28369	-14.32371	595.07050	13.58448	1347.56860	-901.03925	
6135	61.340	-781.32385	38.35217	-643.97656	789.25568	36.04784	-620.82623	-712.69330	-8.17969	489.24002	702.22168	-14.30101	595.03247	13.67647	1347.48291	-901.24329	
6136	61.350	-781.31024	38.32491	-644.03967	789.14929	36.13751	-620.83789	-712.77704	-8.15077	489.30447	702.18481	-14.22696	595.04126	13.64250	1347.48389	-901.41132	
6137	61.360	-781.43823	37.96437	-643.90533	789.17169	36.10785	-620.79358	-712.75232	-8.20222	489.30215	702.10022	-14.22346	595.03235	13.41694	1347.53125	-901.98907	
6138	61.370	-781.44690	37.78991	-643.86407	789.12793	35.97729	-620.81165	-712.77606	-8.13888	489.24866	702.10754	-14.24695	595.01349	13.37364	1347.56885	-902.16333	
6139	61.380	-781.46661	37.59526	-643.81201	789.10425	35.97987	-620.87030	-712.81317	-8.01198	489.19028	701.98199	-14.24617	594.92902	13.36626	1347.56226	-902.27307	
6140	61.390	-781.50232	37.59269	-643.81873	789.02295	35.90326	-620.88037	-712.89758	-8.07009	489.22491	701.91772	-14.23941	594.95276	13.40003	1347.54358	-902.33789	
6141	61.400	-781.57166	37.73663	-643.84039	788.94092	35.89235	-620.84497	-713.07147	-8.10425	489.22861	701.88373	-14.19130	594.98340	13.26861	1347.46252	-902.17157	
6142	61.410	-781.60065	37.79670	-643.84369	788.89728	35.96781	-620.80414	-713.11743	-8.08613	489.25507	701.83966	-14.22943	594.98096	13.28505	1347.49585	-902.07648	
6143	61.420	-781.58923	37.80398	-643.84845	788.85236	36.11298	-620.79626	-713.12842	-8.03763	489.25159	701.74457	-14.27004	594.89545	13.23531	1347.52905	-901.97241	
6144	61.430	-781.65332	37.66399	-643.75897	788.82251	36.06074	-620.84875	-713.19843	-8.06721	489.18744	701.69342	-14.27344	594.88013	13.15153	1347.56311	-901.71564	
6145	61.440	-781.73877	37.64880	-643.77484	788.77130	36.01093	-620.83002	-713.24799	-8.10411	489.20874	701.64160	-14.28920	594.87201	13.12996	1347.58813	-901.34784	
6146	61.450	-781.73480	37.75359	-643.84406	788.71692	36.04860	-620.81268	-713.39972	-8.19515	489.24368	701.56842	-14.28531	594.95636	13.25111	1347.59583	-901.05701	
6147	61.460	-781.79779	37.88762	-643.88068	788.66071	36.15560	-620.79987	-713.52344	-8.19013	489.27271	701.59351	-14.27388	594.99066	13.18697	1347.59705	-900.94788	
6148	61.470	-781.95447	37.97501	-643.79944	788.59613	36.23013	-620.78375	-713.61285	-8.10995	489.19171	701.54608	-14.28782	594.94385	13.02347	1347.64612	-900.85876	
6149	61.480	-782.21838	37.91695	-643.63776	788.39252	36.14605	-620.73712	-713.66174	-8.07482	489.13333	701.44739	-14.31100	594.89655	12.92543	1347.68091	-900.87561	
6150	61.490	-782.43213	37.95452	-643.59589	788.34149	36.09366	-620.75208	-713.74707	-8.10523	489.16943	701.33801	-14.31058	594.81757	12.80802	1347.70435	-900.88647	
6151	61.500	-782.58167	37.89164	-643.50647	788.23132	36.08191	-620.70612	-713.82916	-8.13303	489.16537	701.02563	-14.24527	594.95959	12.85149	1347.69934	-900.95044	
6152	61.510	-782.61871	38.04365	-643.36017	788.13855	36.05748	-620.67798	-713.86182	-8.15107	489.24930	700.97156	-14.23443	595.05878	12.88625	1347.70154	-901.10901	
6153	61.520	-782.63074	38.10139	-643.39349	788.09637	36.12048	-620.71350	-713.91150	-8.14888	489.26691	700.99139	-14.24698	595.07330	12.82713	1347.72913	-901.38068	
6154	61.530	-782.76581	38.14575	-643.43909	788.13629	36.19102	-620.71802	-713.94019	-8.15729	489.16547	700.94141	-14.30687	595.04590	12.60043	1347.86768	-901.69629	
6155	61.540	-782.78357	38.02119	-643.57172	788.07507	36.20464	-620.70074	-714.02673	-8.20134	489.14264	700.78442	-14.31636	594.96100	12.44430	1347.92957	-901.88910	
6156	61.550	-782.80853	38.01352	-643.56299	788.01422	36.18610	-620.67279	-714.15186	-8.21209	489.18475	700.87903	-14.38893	594.93762	12.36032	1347.95654	-901.96008	
6157	61.560	-782.97290	38.17964	-643.44952	787.91608	36.18159	-620.64966	-714.29590	-8.20734	489.23300	700.85638	-14.40743	594.99927	12.46889	1347.99512	-901.76233	
6158	61.570	-783.09015	38.42839	-643.24841	787.88770	36.25400	-620.64728	-714.37689	-8.28125	489.25381	700.69141	-14.51051	595.03699	12.43358	1348.01929	-901.30188	
6159	61.580	-783.11084	38.41716	-643.32037	787.79523	36.33924	-620.64471	-714.45703	-8.34906	489.24713	700.65350	-14.49686	595.10132	12.08735	1348.06384	-900.89478	
6160	61.590	-783.22150	38.47977	-643.29291	787.70795	36.40018	-620.62939	-714.54553	-8.41962	489.27402	700.40515	-14.59574	595.00110	11.86562	1348.06189	-900.71399	
6161	61.600	-783.32745	38.49671	-643.26599	787.61365	36.48488	-620.61261	-714.60773	-8.46332	489.34879	700.19910	-14.68561	594.95374	11.77267	1348.00964	-900.42303	
6162	61.610	-783.41162	38.57180	-643.20441	787.51306	36.45522	-620.59015	-714.44330	-8.68382	489.41953	700.05017	-14.79377	594.97284	11.68383	1348.00513	-900.06549	
6163	61.620	-783.32135	38.51234	-643.32257	787.37433	36.45332	-620.61920	-714.57770	-8.76091	489.44016	700.09296	-14.86809	595.07562	11.48849	1348.08020	-899.62689	
6164	61.630	-783.31171	38.55622	-643.35254	787.29358	36.55203	-620.59961	-714.57355	-8.69898	489.44086	699.86261	-14.91759	595.12750	11.42097	1348.13672	-899.44562	
6165	61.640	-783.42267	38.66033	-643.37170	787.17621	36.69157	-620.59601	-714.57397	-8.68537	489.43036	699.80164	-14.92244	595.10382	11.37559	1348.19775	-899.37939	
6166	61.650	-783.59137	38.73114	-643.41937	787.02032	36.71098	-620.59821	-714.68768	-8.70618	489.40887	699.74646	-14.83289	595.04724	11.21064	1348.20740	-899.41180	
6167	61.660	-783.64716	38.69100	-643.49664	786.86322	36.65275	-620.61731	-714.93561	-8.65986	489.41824	699.62543	-14.79533	595.04077	11.11068	1348.15601	-899.52020	
6168	61.670	-783.73096	38.64161	-643.46924	786.73096	36.60918	-620.62994	-715.05859	-8.68762	489.39142	699.52405	-14.77492	595.05640	11.03058	1348.13428	-899.73511	
6169	61.680	-783.89154	38.63900	-643.56213	786.64703	36.64005	-620.64594	-715.26123	-8.65430	489.32248	699.32910	-14.81716	595.01898	10.76741	1348.20837	-900.11548	
6170	61.690	-783.97003	38.74385	-643.58569	786.58063	36.58803	-620.62384	-715.35034	-8.54562	489.35510	699.24365	-14.78608	595.03430	10.76054	1348.31042	-900.31421	
6171	61.700	-784.07867	38.82341	-643.63953	786.49890	36.60220	-620.68787	-715.49817	-8.50576	489.36328	699.06598	-14.84074	595.00067	10.67552	1348.30078	-900.47882	
6172	61.710	-784.14923	38.80170	-643.72302	786.40118	36.59831	-620.69739	-715.64709	-8.48090	489.27161	699.06641	-14.78986	595.03198	10.57407	1348.31860	-900.61084	
6173	61.720	-784.24615	38.86689	-643.72131	786.32141	36.56579	-620.72058	-715.79474	-8.54022	489.20572	698.97144	-14.80894	595.03070	10.39809	1348.27515	-900.82031	
6174	61.730	-784.28674	38.95367	-643.75299	786.27911	36.65746	-620.68823	-715.88550	-8.53938	489.29474	698.84766	-14.92168	595.00800	10.30168	1348.29333	-900.85284	
6175	61.740	-784.33337	38.95846	-643.81305	786.25671	36.56578	-620.68445	-715.94806	-8.44597	489.29681	698.85211	-14.87504	595.04681	10.28736	1348.33521	-900.76642	
6176	61.750	-784.39136	38.80843	-643.82513	786.18408	36.35957	-620.66809	-716.00275	-8.47848	489.33994	698.72119	-14.81527	595.00604	10.24775	1348.31836	-900.60010	
6177	61.760	-784.52509	38.68783	-643.90009	786.12396	36.36905	-620.68817	-716.05420	-8.36598	489.30258	698.63818	-14.76235	595.01447	10.29757	1348.23596	-900.33911	
6178	61.770	-784.41022	38.66429	-643.74786	785.96716	36.38021	-620.69843	-716.16736	-8.38422	489.32581	698.42242	-14.78931	595.01105	10.32194	1348.11279	-900.16986	
6179	61.780	-784.65472	38.64411	-643.95819	785.87811	36.25477	-620.70898	-716.27625	-8.30023	489.37695	698.41833	-14.71493	595.03534	10.24392	1348.05408	-900.08740	
6180	61.790	-784.56311	38.61805	-643.81616	785.84412	36.14005	-620.74396	-716.08490	-8.61340	489.58878	698.44568	-14.51670	595.00720	10.03442	1348.03503	-900.07526	
6181	61.800	-784.72015	38.35211	-643.98828	785.82336	36.07941	-620.80035	-716.14203	-8.35086	489.49609	698.51318	-14.44092	594.95007	9.98831	1347.95740	-900.22113	
6182	61.810	-784.88269	38.09857	-644.12994	785.77051	36.07397	-620.87097	-716.23871	-8.33052	489.46747	698.52295	-14.26503	594.90997	9.94257	1347.70532	-900.48932	
6183	61.820	-784.87616	37.85398	-644.12280	785.68689	35.76070	-620.86896	-716.36121	-8.38152	489.44305	698.42047	-14.17485	594.88043	9.84114	1347.38354	-900.87097	
6184	61.830	-784.91718	37.78752	-644.11896	785.59650	35.67909	-620.86487	-716.42841	-8.25400	489.50378	698.42310	-14.10664	594.87256	10.00918	1347.07397	-901.20569	
6185	61.840	-785.03442	37.49807	-644.07104	785.55786	35.66045	-620.87787	-716.42157	-8.21447	489.49451	698.43683	-13.98354	594.78217	9.88215	1346.87817	-902.01233	
6186	61.850	-785.20111	37.20343	-644.02509	785.49298	35.61132	-620.96637	-716.40643	-8.19057	489.57413	698.46295	-13.78130	594.78534	9.61968	1346.83423	-902.61096	
6187	61.860	-785.09448	37.21854	-644.06494	785.49847	35.37034	-620.98132	-716.40338	-8.15056	489.51559	698.36475	-13.68293	594.74347	9.53252	1346.75415	-903.32184	
6188	61.870	-785.07904	37.10513	-644.10779	785.44727	35.26046	-620.98450	-716.46436	-8.10641	489.49771	698.25934	-13.60767	594.69263	9.67820	1346.51453	-903.97223	
6189	61.880	-785.07526	37.00696	-644.08948	785.35547	35.08356	-621.00183	-716.49756	-8.10479	489.45245	698.23474	-13.46665	594.72925	9.86456	1346.18689	-904.27765	
6190	61.890	-785.03156	36.89049	-644.03302	785.24567	34.95691	-621.01953	-716.49487	-8.02375	489.42651	698.26001	-13.38234	594.72998	9.84486	1345.94287	-904.52246	
6191	61.900	-784.99048	36.63478	-644.14917	785.37183	34.76852	-621.12372	-716.40808	-7.84807	489.35553	698.26245	-13.27125	594.69159	9.77619	1345.83215	-904.67993	
6192	61.910	-785.05878	36.56611	-644.23737	785.39380	34.59185	-621.23602	-716.52667	-7.58738	489.13882	698.21735	-13.19685	594.63544	9.63628	1345.73083	-904.84772	
6193	61.920	-785.15936	36.38192	-644.35590	785.31708	34.42035	-621.26917	-716.63684	-7.43914	488.99777	698.07800	-13.08372	594.57568	9.62611	1345.48486	-904.76196	
6194	61.930	-785.16797	36.16791	-644.54407	785.40411	34.29570	-621.30573	-716.71863	-7.23310	488.94305	697.96210	-12.88358	594.52869	9.62797	1345.26563	-904.78241	
6195	61.940	-784.96564	35.79227	-644.39618	785.35468	34.04633	-621.32672	-716.74396	-7.13176	488.92404	697.98792	-12.66727	594.53998	9.59762	1344.87866	-905.03870	
6196	61.950	-784.98480	35.61977	-644.41992	785.39154	33.83291	-621.39331	-716.67993	-6.96755	488.88690	697.96149	-12.45002	594.45862	9.65979	1344.46863	-905.41138	
6197	61.960	-784.99066	35.36454	-644.46924	785.34229	33.61390	-621.54626	-716.65979	-6.73397	488.79367	697.87378	-12.28274	594.32397	9.74769	1344.16406	-906.02588	
